<?xml version="1.0" encoding="utf-8"?>
<!-- Generator: Adobe Illustrator 25.0.0, SVG Export Plug-In . SVG Version: 6.00 Build 0)  -->
<svg version="1.1" id="Capa_1" xmlns="http://www.w3.org/2000/svg" xmlns:xlink="http://www.w3.org/1999/xlink" x="0px" y="0px"
	 viewBox="0 0 542 536" style="enable-background:new 0 0 542 536;" xml:space="preserve">
<style type="text/css">
	.st0{stroke:#000000;stroke-width:20;stroke-miterlimit:10;}
</style>
<g>
	<g>
		<path class="st0" d="M245.5,13C121.2,13,20,114.2,20,238.5c0,124.3,101.2,225.5,225.5,225.5c124.3,0,225.5-101.1,225.5-225.5
			C470.9,114.2,369.8,13,245.5,13z M245.5,422.3c-101.4,0-183.8-82.5-183.8-183.8S144.1,54.6,245.5,54.6s183.8,82.5,183.8,183.8
			S346.8,422.3,245.5,422.3z"/>
	</g>
</g>
<g>
	<g>
		<path class="st0" d="M525.9,489.5L406.6,370.1c-8.1-8.1-21.3-8.1-29.4,0c-8.1,8.1-8.1,21.3,0,29.4l119.3,119.3
			c4.1,4.1,9.4,6.1,14.7,6.1c5.3,0,10.6-2,14.7-6.1C534,510.8,534,497.6,525.9,489.5z"/>
	</g>
</g>
</svg>
