<?xml version="1.0" encoding="utf-8"?>
<!-- Generator: Adobe Illustrator 24.3.0, SVG Export Plug-In . SVG Version: 6.00 Build 0)  -->
<svg version="1.1" id="Layer_1" xmlns="http://www.w3.org/2000/svg" xmlns:xlink="http://www.w3.org/1999/xlink" x="0px" y="0px"
	 viewBox="0 0 512 512" style="enable-background:new 0 0 512 512;" xml:space="preserve">
<style type="text/css">
	.st0{fill:#B71234;}
</style>
<path class="st0" d="M415.7,102.6C373.4,60.2,317,36.9,257.1,36.9S140.8,60.2,98.5,102.6s-65.7,98.7-65.7,158.6
	s23.3,116.3,65.7,158.6s98.7,65.7,158.6,65.7s116.3-23.3,158.6-65.7s65.7-98.7,65.7-158.6S458.1,145,415.7,102.6L415.7,102.6z
	 M278.1,261.2c0,11.6-9.4,21-21,21s-21-9.4-21-21s9.4-21,21-21C268.7,240.2,278.1,249.7,278.1,261.2z M270.2,63.6
	c26.1,1.7,51.3,8.5,74.3,19.8l-74.3,128.7V63.6z M243.9,212.2L169.6,83.5c23-11.4,48.2-18.1,74.3-19.8L243.9,212.2L243.9,212.2z
	 M208,274.4L79.3,348.7c-11.4-23-18.1-48.2-19.8-74.3L208,274.4L208,274.4z M59.5,248.1c1.7-26.1,8.5-51.3,19.8-74.3L208,248.1H59.5
	z M243.9,458.9c-26.1-1.7-51.3-8.5-74.3-19.8l74.3-128.7V458.9z M270.2,310.3L344.6,439c-23,11.4-48.2,18.1-74.3,19.8L270.2,310.3
	L270.2,310.3z M306.2,248.1l128.7-74.3c11.4,23,18.1,48.2,19.8,74.3H306.2z M454.7,274.4c-1.7,26.1-8.5,51.3-19.8,74.3l-128.7-74.3
	L454.7,274.4L454.7,274.4z M421.7,151L293,225.3l74.3-128.7c10.6,7.1,20.6,15.3,29.8,24.6S414.6,140.4,421.7,151z M117,121.2
	c9.2-9.2,19.2-17.4,29.8-24.6l74.3,128.7L92.5,151C99.6,140.4,107.8,130.4,117,121.2L117,121.2z M92.5,371.5l128.7-74.3l-74.3,128.7
	c-10.6-7.1-20.6-15.3-29.8-24.6S99.6,382.1,92.5,371.5L92.5,371.5z M397.1,401.3c-9.2,9.2-19.2,17.4-29.8,24.6L293,297.2l128.7,74.3
	C414.6,382.1,406.4,392.1,397.1,401.3L397.1,401.3z"/>
<circle class="st0" cx="257.1" cy="43.4" r="43.4"/>
<circle class="st0" cx="467.2" cy="261.2" r="43.4"/>
<circle class="st0" cx="257.1" cy="469.3" r="43.4"/>
<circle class="st0" cx="44.8" cy="261.2" r="43.4"/>
<ellipse transform="matrix(7.088901e-02 -0.9975 0.9975 7.088901e-02 -306.4751 485.1714)" class="st0" cx="107.2" cy="407.1" rx="43.4" ry="43.4"/>
<circle class="st0" cx="106.1" cy="103.7" r="43.4"/>
<circle class="st0" cx="405.9" cy="112.4" r="43.4"/>
<circle class="st0" cx="405.9" cy="404.9" r="43.4"/>
</svg>
